<?xml version="1.0" standalone="no"?>
<!DOCTYPE svg PUBLIC "-//W3C//DTD SVG 20010904//EN"
 "http://www.w3.org/TR/2001/REC-SVG-20010904/DTD/svg10.dtd">
<svg version="1.0" xmlns="http://www.w3.org/2000/svg"
 width="700.000000pt" height="700.000000pt" viewBox="0 0 700.000000 700.000000"
 preserveAspectRatio="xMidYMid meet">
<metadata>
Created by potrace 1.11, written by Peter Selinger 2001-2013
</metadata>
<g transform="translate(0.000000,700.000000) scale(0.100000,-0.100000)"
fill="#000000" stroke="none">
<path d="M2476 5855 c-57 -20 -87 -46 -116 -96 l-25 -44 0 -2020 0 -2020 22
-40 c27 -50 58 -80 105 -100 33 -13 157 -15 1040 -15 954 0 1005 1 1044 19 51
23 99 81 113 137 16 61 15 3983 0 4039 -15 55 -52 101 -102 128 l-42 22 -1000
2 c-841 2 -1006 0 -1039 -12z m1992 -2062 l2 -1813 -970 0 -970 0 0 1808 c0
995 3 1812 7 1815 3 4 439 6 967 5 l961 -3 3 -1812z"/>
</g>
</svg>
