<?xml version="1.0" encoding="UTF-8" ?>
<!DOCTYPE svg PUBLIC "-//W3C//DTD SVG 1.1//EN" "http://www.w3.org/Graphics/SVG/1.1/DTD/svg11.dtd">
<svg width="98pt" height="98pt" viewBox="0 0 98 98" version="1.1" xmlns="http://www.w3.org/2000/svg">
<g id="#2ecc71ff">
<path fill="#2ecc71" opacity="1.00" d=" M 46.18 0.00 L 50.01 0.00 C 64.91 0.26 79.45 7.73 88.29 19.73 C 94.06 27.33 97.23 36.64 98.00 46.10 L 98.00 51.50 C 97.26 63.97 91.78 76.11 82.61 84.64 C 74.35 92.54 63.25 97.15 51.89 98.00 L 46.51 98.00 C 32.87 97.21 19.64 90.66 11.06 79.99 C 4.49 72.09 0.80 62.09 0.00 51.89 L 0.00 46.53 C 0.68 35.95 4.60 25.55 11.51 17.47 C 20.03 7.20 32.90 0.90 46.18 0.00 M 46.75 28.01 C 46.63 29.52 46.51 31.02 46.39 32.53 C 45.73 32.71 44.42 33.09 43.77 33.28 C 42.89 32.03 42.01 30.79 41.14 29.53 C 39.53 30.40 37.95 31.32 36.38 32.27 C 37.03 33.64 37.68 35.02 38.33 36.39 C 37.68 37.03 37.03 37.68 36.39 38.33 C 35.02 37.68 33.65 37.03 32.28 36.38 C 31.33 37.95 30.41 39.53 29.52 41.13 C 30.78 41.99 32.03 42.87 33.28 43.75 C 33.10 44.40 32.74 45.71 32.56 46.36 C 31.04 46.49 29.53 46.62 28.01 46.75 C 27.99 48.58 27.99 50.42 28.01 52.25 C 29.52 52.37 31.03 52.48 32.53 52.60 C 32.72 53.25 33.09 54.57 33.28 55.23 C 32.03 56.11 30.78 57.00 29.52 57.87 C 30.42 59.47 31.34 61.05 32.28 62.61 C 33.66 61.96 35.03 61.31 36.41 60.66 C 37.04 61.31 37.68 61.95 38.33 62.60 C 37.68 63.98 37.03 65.37 36.39 66.76 C 37.96 67.67 39.55 68.58 41.13 69.48 C 42.00 68.22 42.87 66.97 43.75 65.72 C 44.41 65.90 45.72 66.27 46.38 66.45 C 46.51 67.96 46.63 69.47 46.76 70.99 C 48.58 71.00 50.41 71.01 52.24 70.99 C 52.37 69.47 52.49 67.96 52.62 66.45 C 53.27 66.27 54.59 65.91 55.25 65.72 C 56.13 66.98 57.01 68.22 57.88 69.48 C 59.47 68.59 61.05 67.66 62.61 66.72 C 61.97 65.34 61.31 63.97 60.67 62.60 C 61.32 61.96 61.96 61.32 62.60 60.67 C 63.98 61.32 65.37 61.97 66.75 62.61 C 67.69 61.05 68.57 59.45 69.48 57.87 C 68.23 56.99 66.98 56.11 65.72 55.23 C 65.91 54.57 66.28 53.25 66.47 52.59 C 67.97 52.48 69.48 52.37 70.99 52.25 C 71.00 50.42 71.00 48.58 70.99 46.75 C 69.47 46.62 67.96 46.49 66.44 46.36 C 66.26 45.71 65.90 44.40 65.72 43.75 C 66.97 42.87 68.22 42.00 69.47 41.13 C 68.59 39.53 67.68 37.95 66.76 36.38 C 65.37 37.02 63.99 37.67 62.62 38.32 C 61.97 37.67 61.32 37.02 60.67 36.37 C 61.32 34.99 61.98 33.61 62.63 32.23 C 61.05 31.32 59.46 30.42 57.87 29.53 C 57.00 30.78 56.12 32.03 55.25 33.28 C 54.59 33.09 53.27 32.72 52.61 32.53 C 52.49 31.02 52.37 29.52 52.25 28.01 C 50.41 27.99 48.58 27.99 46.75 28.01 Z" />
<path fill="#2ecc71" opacity="1.00" d=" M 48.31 45.37 C 51.40 44.33 54.68 47.60 53.63 50.69 C 52.90 53.76 48.56 54.87 46.44 52.52 C 44.14 50.39 45.26 46.10 48.31 45.37 Z" />
</g>
<g id="#ffffffff">
<path fill="#ffffff" opacity="1.00" d=" M 46.75 28.01 C 48.58 27.99 50.41 27.99 52.25 28.01 C 52.37 29.52 52.49 31.02 52.61 32.53 C 53.27 32.72 54.59 33.09 55.25 33.28 C 56.12 32.03 57.00 30.78 57.87 29.53 C 59.46 30.42 61.05 31.32 62.63 32.23 C 61.98 33.61 61.32 34.99 60.67 36.37 C 61.32 37.02 61.97 37.67 62.62 38.32 C 63.99 37.67 65.37 37.02 66.76 36.38 C 67.68 37.95 68.59 39.53 69.47 41.13 C 68.22 42.00 66.97 42.87 65.72 43.75 C 65.90 44.40 66.26 45.71 66.44 46.36 C 67.96 46.49 69.47 46.62 70.99 46.75 C 71.00 48.58 71.00 50.42 70.99 52.25 C 69.48 52.37 67.97 52.48 66.47 52.59 C 66.28 53.25 65.91 54.57 65.72 55.23 C 66.98 56.11 68.23 56.99 69.48 57.87 C 68.57 59.45 67.69 61.05 66.75 62.61 C 65.37 61.97 63.98 61.32 62.60 60.67 C 61.96 61.32 61.32 61.96 60.67 62.60 C 61.31 63.97 61.97 65.34 62.61 66.72 C 61.05 67.66 59.47 68.59 57.88 69.48 C 57.01 68.22 56.13 66.98 55.25 65.72 C 54.59 65.91 53.27 66.27 52.62 66.45 C 52.49 67.96 52.37 69.47 52.24 70.99 C 50.41 71.01 48.58 71.00 46.76 70.99 C 46.63 69.47 46.51 67.96 46.38 66.45 C 45.72 66.27 44.41 65.90 43.75 65.72 C 42.87 66.97 42.00 68.22 41.13 69.48 C 39.55 68.58 37.96 67.67 36.39 66.76 C 37.03 65.37 37.68 63.98 38.33 62.60 C 37.68 61.95 37.04 61.31 36.41 60.66 C 35.03 61.31 33.66 61.96 32.28 62.61 C 31.34 61.05 30.42 59.47 29.52 57.87 C 30.78 57.00 32.03 56.11 33.28 55.23 C 33.09 54.57 32.72 53.25 32.53 52.60 C 31.03 52.48 29.52 52.37 28.01 52.25 C 27.99 50.42 27.99 48.58 28.01 46.75 C 29.53 46.62 31.04 46.49 32.56 46.36 C 32.74 45.71 33.10 44.40 33.28 43.75 C 32.03 42.87 30.78 41.99 29.52 41.13 C 30.41 39.53 31.33 37.95 32.28 36.38 C 33.65 37.03 35.02 37.68 36.39 38.33 C 37.03 37.68 37.68 37.03 38.33 36.39 C 37.68 35.02 37.03 33.64 36.38 32.27 C 37.95 31.32 39.53 30.40 41.14 29.53 C 42.01 30.79 42.89 32.03 43.77 33.28 C 44.42 33.09 45.73 32.71 46.39 32.53 C 46.51 31.02 46.63 29.52 46.75 28.01 M 48.31 45.37 C 45.26 46.10 44.14 50.39 46.44 52.52 C 48.56 54.87 52.90 53.76 53.63 50.69 C 54.68 47.60 51.40 44.33 48.31 45.37 Z" />
</g>
</svg>
