<?xml version="1.0" encoding="UTF-8" ?>
<!DOCTYPE svg PUBLIC "-//W3C//DTD SVG 1.1//EN" "http://www.w3.org/Graphics/SVG/1.1/DTD/svg11.dtd">
<svg width="98pt" height="98pt" viewBox="0 0 98 98" version="1.1" xmlns="http://www.w3.org/2000/svg">
<g id="#2ecc71ff">
<path fill="#2ecc71" opacity="1.00" d=" M 43.86 0.00 L 53.45 0.00 C 67.88 1.32 81.58 9.30 89.66 21.37 C 94.30 28.02 96.92 35.87 98.00 43.86 L 98.00 53.51 C 96.72 67.21 89.50 80.22 78.41 88.40 C 71.21 93.81 62.51 97.08 53.56 98.00 L 44.53 98.00 C 30.09 96.67 16.40 88.70 8.34 76.62 C 3.69 69.97 1.08 62.12 0.00 54.13 L 0.00 44.54 C 0.90 35.55 4.16 26.78 9.63 19.56 C 17.67 8.63 30.44 1.59 43.86 0.00 M 47.96 24.04 C 45.56 29.09 43.26 34.19 40.86 39.25 C 35.24 40.15 29.63 41.08 24.02 42.00 C 27.80 46.09 31.66 50.10 35.46 54.17 C 34.69 60.08 33.86 65.99 33.08 71.91 C 38.17 69.16 43.26 66.41 48.35 63.65 C 53.28 66.39 58.17 69.23 63.10 71.97 C 62.39 65.93 61.66 59.89 60.94 53.85 C 64.58 49.86 68.32 45.97 71.98 42.00 C 66.48 41.09 60.98 40.18 55.47 39.30 C 52.92 34.23 50.48 29.12 47.96 24.04 Z" />
</g>
<g id="#ffffffff">
<path fill="#ffffff" opacity="1.00" d=" M 47.96 24.04 C 50.48 29.12 52.92 34.23 55.47 39.30 C 60.98 40.18 66.48 41.09 71.98 42.00 C 68.32 45.97 64.58 49.86 60.94 53.85 C 61.66 59.89 62.39 65.93 63.10 71.97 C 58.17 69.23 53.28 66.39 48.35 63.65 C 43.26 66.41 38.17 69.16 33.08 71.91 C 33.86 65.99 34.69 60.08 35.46 54.17 C 31.66 50.10 27.80 46.09 24.02 42.00 C 29.63 41.08 35.24 40.15 40.86 39.25 C 43.26 34.19 45.56 29.09 47.96 24.04 Z" />
</g>
</svg>
