<?xml version="1.0" encoding="UTF-8" ?>
<!DOCTYPE svg PUBLIC "-//W3C//DTD SVG 1.1//EN" "http://www.w3.org/Graphics/SVG/1.1/DTD/svg11.dtd">
<svg width="98pt" height="98pt" viewBox="0 0 98 98" version="1.1" xmlns="http://www.w3.org/2000/svg">
<g id="#2ecc71ff">
<path fill="#2ecc71" opacity="1.00" d=" M 43.28 0.00 L 54.66 0.00 C 68.45 1.69 81.40 9.31 89.34 20.75 C 94.06 27.40 96.90 35.25 98.00 43.32 L 98.00 54.70 C 96.43 67.30 89.98 79.19 80.10 87.19 C 72.88 93.11 63.95 96.76 54.73 98.00 L 43.38 98.00 C 28.67 96.25 14.93 87.65 7.18 74.99 C 3.30 68.86 1.00 61.85 0.00 54.69 L 0.00 43.35 C 1.08 35.25 3.97 27.37 8.71 20.68 C 16.64 9.30 29.55 1.73 43.28 0.00 M 42.49 27.79 C 34.63 29.79 28.11 36.19 25.93 44.00 C 23.56 51.81 25.78 60.72 31.40 66.60 C 36.81 72.47 45.35 75.17 53.16 73.52 C 61.54 71.93 68.65 65.36 71.03 57.19 C 73.66 48.64 70.82 38.73 64.05 32.90 C 58.31 27.73 49.94 25.78 42.49 27.79 Z" />
<path fill="#2ecc71" opacity="1.00" d=" M 42.80 33.50 C 47.08 33.50 51.66 32.38 55.67 34.41 C 58.01 35.39 59.99 37.03 61.72 38.86 C 61.32 39.17 60.53 39.80 60.13 40.11 C 59.87 39.65 59.36 38.73 59.10 38.27 C 57.67 38.02 56.24 37.77 54.81 37.52 C 52.47 41.55 57.06 44.39 57.56 48.18 C 56.32 49.95 55.56 51.97 55.22 54.09 C 59.37 53.57 62.21 50.00 66.13 48.97 C 66.94 57.93 60.14 66.75 51.17 67.91 C 40.89 69.85 30.26 60.78 31.05 50.22 C 31.39 53.25 32.72 55.97 34.60 58.34 C 36.84 58.84 39.02 59.53 41.14 60.41 C 41.60 59.80 42.53 58.58 43.00 57.98 C 44.43 59.23 44.91 61.44 46.69 62.26 C 46.73 60.18 46.35 58.13 46.08 56.08 C 46.42 53.25 48.87 51.25 49.18 48.40 C 47.12 48.18 45.06 47.99 43.00 47.79 C 42.17 46.26 41.93 44.54 42.02 42.82 C 43.18 41.64 44.15 40.29 45.08 38.92 C 40.66 38.68 39.77 43.05 38.12 46.07 C 35.96 47.38 33.38 47.91 31.03 48.85 C 31.41 42.09 36.32 36.35 42.41 33.80 C 39.48 35.87 36.43 38.00 34.74 41.29 C 36.68 39.85 38.55 38.32 40.51 36.90 C 41.09 37.42 42.25 38.46 42.82 38.98 C 44.88 38.24 46.98 37.65 49.13 37.29 C 50.00 36.28 50.66 35.11 51.39 33.99 C 48.54 33.68 45.67 33.52 42.80 33.50 M 48.57 61.80 C 51.15 64.53 54.69 63.70 57.87 62.80 C 58.25 62.12 58.63 61.45 59.01 60.78 C 57.64 59.92 56.24 59.09 54.86 58.26 C 52.76 59.45 50.66 60.61 48.57 61.80 Z" />
</g>
<g id="#ffffffff">
<path fill="#ffffff" opacity="1.00" d=" M 42.49 27.79 C 49.94 25.78 58.31 27.73 64.05 32.90 C 70.82 38.73 73.66 48.64 71.03 57.19 C 68.65 65.36 61.54 71.93 53.16 73.52 C 45.35 75.17 36.81 72.47 31.40 66.60 C 25.78 60.72 23.56 51.81 25.93 44.00 C 28.11 36.19 34.63 29.79 42.49 27.79 M 42.80 33.50 C 45.67 33.52 48.54 33.68 51.39 33.99 C 50.66 35.11 50.00 36.28 49.13 37.29 C 46.98 37.65 44.88 38.24 42.82 38.98 C 42.25 38.46 41.09 37.42 40.51 36.90 C 38.55 38.32 36.68 39.85 34.74 41.29 C 36.43 38.00 39.48 35.87 42.41 33.80 C 36.32 36.35 31.41 42.09 31.03 48.85 C 33.38 47.91 35.96 47.38 38.12 46.07 C 39.77 43.05 40.66 38.68 45.08 38.92 C 44.15 40.29 43.18 41.64 42.02 42.82 C 41.93 44.54 42.17 46.26 43.00 47.79 C 45.06 47.99 47.12 48.18 49.18 48.40 C 48.87 51.25 46.42 53.25 46.08 56.08 C 46.35 58.13 46.73 60.18 46.69 62.26 C 44.91 61.44 44.43 59.23 43.00 57.98 C 42.53 58.58 41.60 59.80 41.14 60.41 C 39.02 59.53 36.84 58.84 34.60 58.34 C 32.72 55.97 31.39 53.25 31.05 50.22 C 30.26 60.78 40.89 69.85 51.17 67.91 C 60.14 66.75 66.94 57.93 66.13 48.97 C 62.21 50.00 59.37 53.57 55.22 54.09 C 55.56 51.97 56.32 49.95 57.56 48.18 C 57.06 44.39 52.47 41.55 54.81 37.52 C 56.24 37.77 57.67 38.02 59.10 38.27 C 59.36 38.73 59.87 39.65 60.13 40.11 C 60.53 39.80 61.32 39.17 61.72 38.86 C 59.99 37.03 58.01 35.39 55.67 34.41 C 51.66 32.38 47.08 33.50 42.80 33.50 Z" />
<path fill="#ffffff" opacity="1.00" d=" M 48.57 61.80 C 50.66 60.61 52.76 59.45 54.86 58.26 C 56.24 59.09 57.64 59.92 59.01 60.78 C 58.63 61.45 58.25 62.12 57.87 62.80 C 54.69 63.70 51.15 64.53 48.57 61.80 Z" />
</g>
</svg>
